<svg xmlns="http://www.w3.org/2000/svg" viewBox="0 0 1200 800" fill="none">
  <style>
    text { font-family: 'Inter', system-ui, sans-serif; }
    .label { fill: #6b756d; font-size: 11px; }
    .heading { fill: #0f1720; font-weight: 700; }
    .box { stroke: #c9ceca; stroke-width: 1.5; fill: #f8faf9; rx: 8; }
    .accent { stroke: #1f6b4f; stroke-width: 2; fill: #eaf7ef; rx: 8; }
    .btn { fill: #1a5240; rx: 6; }
    .btn-text { fill: white; font-size: 10px; font-weight: 600; }
    .arrow { stroke: #38a169; stroke-width: 2; marker-end: url(#arrowhead); }
    .divider { stroke: #e2e5e3; stroke-width: 1; stroke-dasharray: 4 4; }
    .section-label { fill: #1f6b4f; font-size: 13px; font-weight: 700; text-transform: uppercase; letter-spacing: 2px; }
  </style>
  <defs>
    <marker id="arrowhead" markerWidth="10" markerHeight="7" refX="0" refY="3.5" orient="auto">
      <polygon points="0 0, 10 3.5, 0 7" fill="#38a169"/>
    </marker>
  </defs>

  <!-- Title -->
  <text x="600" y="30" text-anchor="middle" class="heading" font-size="18">CPA Landing Page — Wireframe: Mobile → Desktop</text>

  <!-- ==================== MOBILE (left side) ==================== -->
  <text x="200" y="65" text-anchor="middle" class="section-label" font-size="14">📱 MOBILE (375px)</text>

  <!-- Mobile Container -->
  <rect x="60" y="80" width="280" height="680" class="box" fill="white"/>

  <!-- Mobile Header -->
  <rect x="60" y="80" width="280" height="50" class="accent"/>
  <rect x="75" y="95" width="60" height="20" rx="3" fill="#1a5240" opacity="0.3"/>
  <text x="82" y="109" fill="white" font-size="8" font-weight="600">LOGO</text>
  <rect x="290" y="97" width="16" height="2" fill="#333" rx="1"/>
  <rect x="290" y="102" width="16" height="2" fill="#333" rx="1"/>
  <rect x="290" y="107" width="16" height="2" fill="#333" rx="1"/>
  <text x="315" y="107" class="label" font-size="8">☰ Hamburger</text>

  <!-- Mobile Hero -->
  <rect x="75" y="145" width="250" height="12" rx="6" fill="#eaf7ef"/>
  <text x="200" y="154" text-anchor="middle" font-size="7" fill="#1f6b4f">Desde 2007 no agronegócio</text>

  <rect x="75" y="168" width="240" height="14" rx="2" fill="#e2e5e3"/>
  <rect x="75" y="186" width="180" height="14" rx="2" fill="#e2e5e3"/>
  <text x="75" y="212" class="label" font-size="9">Headline (h1) — 2 linhas</text>

  <rect x="75" y="225" width="250" height="10" rx="2" fill="#f1f3f2"/>
  <rect x="75" y="239" width="220" height="10" rx="2" fill="#f1f3f2"/>
  <text x="75" y="260" class="label" font-size="9">Subheadline — texto fornecido</text>

  <!-- Mobile CTAs -->
  <rect x="75" y="272" width="250" height="36" class="btn"/>
  <text x="200" y="294" text-anchor="middle" class="btn-text">Solicitar Consultoria →</text>
  <rect x="75" y="314" width="250" height="36" rx="6" stroke="#c9ceca" stroke-width="1.5" fill="white"/>
  <text x="200" y="336" text-anchor="middle" font-size="10" fill="#1a5240" font-weight="600">Ver Serviços ↓</text>

  <!-- Mobile Hero Image -->
  <rect x="75" y="362" width="250" height="140" rx="8" fill="#c6ecd3" stroke="#8ed4a2" stroke-width="1"/>
  <text x="200" y="435" text-anchor="middle" class="label" font-size="10">Imagem Hero (Unsplash)</text>
  <text x="200" y="450" text-anchor="middle" class="label" font-size="8">aspect-ratio: 4/3</text>

  <!-- Mobile Trust Indicators -->
  <rect x="75" y="515" width="75" height="40" rx="4" fill="#f8faf9" stroke="#e2e5e3" stroke-width="1"/>
  <text x="112" y="535" text-anchor="middle" font-size="10" fill="#1a5240" font-weight="700">18+</text>
  <text x="112" y="548" text-anchor="middle" font-size="6" fill="#9ca39e">Anos</text>

  <rect x="160" y="515" width="75" height="40" rx="4" fill="#f8faf9" stroke="#e2e5e3" stroke-width="1"/>
  <text x="197" y="535" text-anchor="middle" font-size="10" fill="#1a5240" font-weight="700">500+</text>
  <text x="197" y="548" text-anchor="middle" font-size="6" fill="#9ca39e">Clientes</text>

  <rect x="245" y="515" width="75" height="40" rx="4" fill="#f8faf9" stroke="#e2e5e3" stroke-width="1"/>
  <text x="282" y="535" text-anchor="middle" font-size="10" fill="#1a5240" font-weight="700">98%</text>
  <text x="282" y="548" text-anchor="middle" font-size="6" fill="#9ca39e">Satisfação</text>

  <!-- Mobile Services preview -->
  <line x1="75" y1="575" x2="325" y2="575" class="divider"/>
  <text x="200" y="595" text-anchor="middle" class="section-label" font-size="10">SERVIÇOS</text>

  <!-- Mobile Service Cards (stacked) -->
  <rect x="75" y="608" width="250" height="55" rx="6" fill="white" stroke="#e2e5e3" stroke-width="1"/>
  <rect x="85" y="618" width="30" height="30" rx="6" fill="#eaf7ef"/>
  <rect x="125" y="620" width="120" height="8" rx="2" fill="#e2e5e3"/>
  <rect x="125" y="634" width="180" height="6" rx="2" fill="#f1f3f2"/>
  <rect x="125" y="644" width="150" height="6" rx="2" fill="#f1f3f2"/>

  <rect x="75" y="670" width="250" height="55" rx="6" fill="white" stroke="#e2e5e3" stroke-width="1"/>
  <rect x="85" y="680" width="30" height="30" rx="6" fill="#eaf7ef"/>
  <rect x="125" y="682" width="140" height="8" rx="2" fill="#e2e5e3"/>
  <rect x="125" y="696" width="180" height="6" rx="2" fill="#f1f3f2"/>
  <rect x="125" y="706" width="160" height="6" rx="2" fill="#f1f3f2"/>

  <text x="200" y="748" text-anchor="middle" class="label" font-size="8">Cards empilhados (1 col)</text>

  <!-- ==================== ARROW ==================== -->
  <line x1="400" y1="400" x2="500" y2="400" class="arrow"/>
  <text x="450" y="390" text-anchor="middle" class="label" font-size="10" fill="#38a169" font-weight="600">≥ 1024px</text>
  <text x="450" y="420" text-anchor="middle" class="label" font-size="9">Breakpoint lg</text>

  <!-- ==================== DESKTOP (right side) ==================== -->
  <text x="830" y="65" text-anchor="middle" class="section-label" font-size="14">🖥️ DESKTOP (1280px)</text>

  <!-- Desktop Container -->
  <rect x="530" y="80" width="620" height="680" class="box" fill="white"/>

  <!-- Desktop Header -->
  <rect x="530" y="80" width="620" height="50" class="accent"/>
  <rect x="555" y="95" width="70" height="20" rx="3" fill="#1a5240" opacity="0.3"/>
  <text x="563" y="109" fill="white" font-size="8" font-weight="600">LOGO</text>

  <!-- Nav items -->
  <text x="750" y="109" class="label" font-size="9">Home</text>
  <text x="800" y="109" class="label" font-size="9">Serviços</text>
  <text x="860" y="109" class="label" font-size="9">Sobre</text>
  <text x="910" y="109" class="label" font-size="9">Contato</text>

  <rect x="1020" y="95" width="110" height="22" class="btn"/>
  <text x="1075" y="110" text-anchor="middle" class="btn-text" font-size="8">Solicitar Consultoria</text>

  <!-- Desktop Hero — Two columns -->
  <!-- Left col: text -->
  <rect x="555" y="155" width="150" height="12" rx="6" fill="#eaf7ef"/>
  <text x="630" y="164" text-anchor="middle" font-size="7" fill="#1f6b4f">Desde 2007 no agronegócio</text>

  <rect x="555" y="180" width="280" height="18" rx="2" fill="#e2e5e3"/>
  <rect x="555" y="204" width="220" height="18" rx="2" fill="#e2e5e3"/>
  <text x="555" y="236" class="label" font-size="9">Headline h1 — grande, bold</text>

  <rect x="555" y="248" width="270" height="10" rx="2" fill="#f1f3f2"/>
  <rect x="555" y="262" width="250" height="10" rx="2" fill="#f1f3f2"/>

  <!-- Desktop CTAs side by side -->
  <rect x="555" y="290" width="150" height="34" class="btn"/>
  <text x="630" y="311" text-anchor="middle" class="btn-text">Solicitar Consultoria →</text>
  <rect x="715" y="290" width="130" height="34" rx="6" stroke="#c9ceca" stroke-width="1.5" fill="white"/>
  <text x="780" y="311" text-anchor="middle" font-size="9" fill="#1a5240" font-weight="600">Ver Serviços ↓</text>

  <!-- Trust indicators -->
  <rect x="555" y="340" width="60" height="35" rx="4" fill="#f8faf9" stroke="#e2e5e3" stroke-width="1"/>
  <text x="585" y="357" text-anchor="middle" font-size="9" fill="#1a5240" font-weight="700">18+</text>
  <text x="585" y="369" text-anchor="middle" font-size="5" fill="#9ca39e">Anos</text>

  <rect x="625" y="340" width="60" height="35" rx="4" fill="#f8faf9" stroke="#e2e5e3" stroke-width="1"/>
  <text x="655" y="357" text-anchor="middle" font-size="9" fill="#1a5240" font-weight="700">500+</text>
  <text x="655" y="369" text-anchor="middle" font-size="5" fill="#9ca39e">Clientes</text>

  <rect x="695" y="340" width="60" height="35" rx="4" fill="#f8faf9" stroke="#e2e5e3" stroke-width="1"/>
  <text x="725" y="357" text-anchor="middle" font-size="9" fill="#1a5240" font-weight="700">98%</text>
  <text x="725" y="369" text-anchor="middle" font-size="5" fill="#9ca39e">Satisfação</text>

  <!-- Right col: image -->
  <rect x="860" y="155" width="270" height="210" rx="10" fill="#c6ecd3" stroke="#8ed4a2" stroke-width="1"/>
  <text x="995" y="260" text-anchor="middle" class="label" font-size="11">Imagem Hero</text>
  <text x="995" y="278" text-anchor="middle" class="label" font-size="8">(Unsplash placeholder)</text>

  <!-- Floating card decoration -->
  <rect x="840" y="340" width="100" height="40" rx="6" fill="white" stroke="#e2e5e3" stroke-width="1"/>
  <text x="890" y="358" text-anchor="middle" font-size="7" fill="#1a5240" font-weight="600">📈 +35%</text>
  <text x="890" y="372" text-anchor="middle" font-size="6" fill="#9ca39e">Produtividade</text>

  <!-- Desktop Services — Three columns -->
  <line x1="555" y1="400" x2="1130" y2="400" class="divider"/>
  <text x="840" y="425" text-anchor="middle" class="section-label" font-size="11">NOSSOS SERVIÇOS</text>
  <text x="840" y="440" text-anchor="middle" class="label" font-size="9">Subtítulo da seção</text>

  <!-- 3 cards side by side -->
  <rect x="555" y="455" width="180" height="130" rx="8" fill="white" stroke="#e2e5e3" stroke-width="1"/>
  <rect x="572" y="470" width="35" height="35" rx="8" fill="#eaf7ef"/>
  <text x="590" y="492" text-anchor="middle" font-size="16">📊</text>
  <rect x="572" y="515" width="120" height="8" rx="2" fill="#e2e5e3"/>
  <rect x="572" y="530" width="145" height="6" rx="2" fill="#f1f3f2"/>
  <rect x="572" y="542" width="130" height="6" rx="2" fill="#f1f3f2"/>
  <rect x="572" y="554" width="100" height="6" rx="2" fill="#f1f3f2"/>
  <text x="645" y="578" text-anchor="middle" class="label" font-size="7">Consultoria Estratégica</text>

  <rect x="750" y="455" width="180" height="130" rx="8" fill="white" stroke="#e2e5e3" stroke-width="1"/>
  <rect x="767" y="470" width="35" height="35" rx="8" fill="#eaf7ef"/>
  <text x="785" y="492" text-anchor="middle" font-size="16">💰</text>
  <rect x="767" y="515" width="130" height="8" rx="2" fill="#e2e5e3"/>
  <rect x="767" y="530" width="145" height="6" rx="2" fill="#f1f3f2"/>
  <rect x="767" y="542" width="120" height="6" rx="2" fill="#f1f3f2"/>
  <rect x="767" y="554" width="100" height="6" rx="2" fill="#f1f3f2"/>
  <text x="840" y="578" text-anchor="middle" class="label" font-size="7">Planejamento Financeiro</text>

  <rect x="945" y="455" width="180" height="130" rx="8" fill="white" stroke="#e2e5e3" stroke-width="1"/>
  <rect x="962" y="470" width="35" height="35" rx="8" fill="#eaf7ef"/>
  <text x="980" y="492" text-anchor="middle" font-size="16">⚙️</text>
  <rect x="962" y="515" width="110" height="8" rx="2" fill="#e2e5e3"/>
  <rect x="962" y="530" width="145" height="6" rx="2" fill="#f1f3f2"/>
  <rect x="962" y="542" width="130" height="6" rx="2" fill="#f1f3f2"/>
  <rect x="962" y="554" width="100" height="6" rx="2" fill="#f1f3f2"/>
  <text x="1035" y="578" text-anchor="middle" class="label" font-size="7">Gestão de Produção</text>

  <!-- Annotations -->
  <text x="840" y="610" text-anchor="middle" class="label" font-size="8">grid-cols-3 no desktop • gap-8 • cards com hover shadow</text>

  <!-- Desktop About preview -->
  <line x1="555" y1="630" x2="1130" y2="630" class="divider"/>
  <text x="840" y="655" text-anchor="middle" class="section-label" font-size="11">SOBRE / POR QUE ESCOLHER</text>
  <text x="840" y="670" text-anchor="middle" class="label" font-size="8">grid-cols-2 • Imagem + Texto com benefícios (ícone + título + desc)</text>

  <!-- Desktop Footer preview -->
  <rect x="530" y="690" width="620" height="70" rx="0" fill="#0d2e1f"/>
  <text x="840" y="720" text-anchor="middle" fill="#8ed4a2" font-size="10">CTA: Solicitar Consultoria • Email • Telefone • Redes Sociais</text>
  <text x="840" y="740" text-anchor="middle" fill="#5cb97e" font-size="8">© 2026 CPA — Consultoria e Planejamento em Agronegócio</text>

  <!-- Responsive annotations -->
  <text x="200" y="775" text-anchor="middle" class="label" font-size="9">📱 flex-col • 100% width • hamburger menu</text>
  <text x="840" y="775" text-anchor="middle" class="label" font-size="9">🖥️ grid-cols-2 hero • grid-cols-3 cards • sticky header</text>
</svg>
